HIERARCHY
ROOT Hips
{
  OFFSET 0.849866 78.6569 -0.536788
  CHANNELS 6 Xposition Yposition Zposition Zrotation Xrotation Yrotation
  JOINT Bip01_Pelvis
  {
    OFFSET 0 0 0
    CHANNELS 6 Xposition Yposition Zposition Zrotation Xrotation Yrotation
    JOINT BN_Tail_01
    {
      OFFSET -5.52397 -0.332285 0
      CHANNELS 6 Xposition Yposition Zposition Zrotation Xrotation Yrotation
      JOINT BN_Tail_02
      {
        OFFSET 6.48885 -2.032e-005 0
        CHANNELS 6 Xposition Yposition Zposition Zrotation Xrotation Yrotation
        JOINT BN_Tail_03
        {
          OFFSET 7.08759 1.016e-005 -0.00261112
          CHANNELS 6 Xposition Yposition Zposition Zrotation Xrotation Yrotation
          End Site
          {
            OFFSET 0 0 0
          }
        }
      }
    }
    JOINT Bip01_Spine
    {
      OFFSET 4.02227 0.398968 0
      CHANNELS 6 Xposition Yposition Zposition Zrotation Xrotation Yrotation
      JOINT BN_UpperArm_R_01
      {
        OFFSET 4.84413 -3.22857 -3.65581
        CHANNELS 6 Xposition Yposition Zposition Zrotation Xrotation Yrotation
        JOINT BN_Forearm_R_01
        {
          OFFSET 8.51614 0 0
          CHANNELS 6 Xposition Yposition Zposition Zrotation Xrotation Yrotation
          JOINT BN_hand_R_01
          {
            OFFSET 10.1924 0 0
            CHANNELS 6 Xposition Yposition Zposition Zrotation Xrotation Yrotation
            JOINT BN_Finger_R_02
            {
              OFFSET 14.5949 -1.43855 0.585079
              CHANNELS 6 Xposition Yposition Zposition Zrotation Xrotation Yrotation
              End Site
              {
                OFFSET 0 0 0
              }
            }
            JOINT BN_Finger_R_01
            {
              OFFSET 14.4623 0 0
              CHANNELS 6 Xposition Yposition Zposition Zrotation Xrotation Yrotation
              End Site
              {
                OFFSET 0 0 0
              }
            }
          }
        }
      }
      JOINT BN_UpperArm_L_01
      {
        OFFSET 4.84412 -3.22858 3.65557
        CHANNELS 6 Xposition Yposition Zposition Zrotation Xrotation Yrotation
        JOINT BN_Forearm_L_01
        {
          OFFSET 8.51611 0 0
          CHANNELS 6 Xposition Yposition Zposition Zrotation Xrotation Yrotation
          JOINT BN_hand_L_01
          {
            OFFSET 10.1924 0 0
            CHANNELS 6 Xposition Yposition Zposition Zrotation Xrotation Yrotation
            JOINT BN_Finger_L_01
            {
              OFFSET 14.4623 0 0
              CHANNELS 6 Xposition Yposition Zposition Zrotation Xrotation Yrotation
              End Site
              {
                OFFSET 0 0 0
              }
            }
            JOINT BN_Finger_L_02
            {
              OFFSET 14.5949 1.43855 0.585071
              CHANNELS 6 Xposition Yposition Zposition Zrotation Xrotation Yrotation
              End Site
              {
                OFFSET 0 0 0
              }
            }
          }
        }
      }
      JOINT Bip01_R_Thigh
      {
        OFFSET -4.03411 -0.254132 -3.45377
        CHANNELS 6 Xposition Yposition Zposition Zrotation Xrotation Yrotation
        JOINT Bip01_R_Calf
        {
          OFFSET 3.92618 0 0
          CHANNELS 6 Xposition Yposition Zposition Zrotation Xrotation Yrotation
          JOINT Bip01_R_HorseLink
          {
            OFFSET 6.12319 0 0
            CHANNELS 6 Xposition Yposition Zposition Zrotation Xrotation Yrotation
            JOINT Bip01_R_Foot
            {
              OFFSET 9.94776 0 0
              CHANNELS 6 Xposition Yposition Zposition Zrotation Xrotation Yrotation
              JOINT Bip01_R_Toe3
              {
                OFFSET 0.881252 -0.110953 0.0158496
                CHANNELS 6 Xposition Yposition Zposition Zrotation Xrotation Yrotation
                JOINT Bip01_R_Toe31
                {
                  OFFSET 2.32137 0 0
                  CHANNELS 6 Xposition Yposition Zposition Zrotation Xrotation Yrotation
                  JOINT Bip01_R_Toe32
                  {
                    OFFSET 1.63293 0 0
                    CHANNELS 6 Xposition Yposition Zposition Zrotation Xrotation Yrotation
                    JOINT Bip01_R_Toe3Nub
                    {
                      OFFSET 1.72131 0 0
                      CHANNELS 6 Xposition Yposition Zposition Zrotation Xrotation Yrotation
                      End Site
                      {
                        OFFSET 0 0 0
                      }
                    }
                  }
                }
              }
              JOINT Bip01_R_Toe2
              {
                OFFSET 0.994751 0.967285 -1.09428
                CHANNELS 6 Xposition Yposition Zposition Zrotation Xrotation Yrotation
                JOINT Bip01_R_Toe21
                {
                  OFFSET 2.20201 0 0
                  CHANNELS 6 Xposition Yposition Zposition Zrotation Xrotation Yrotation
                  JOINT Bip01_R_Toe22
                  {
                    OFFSET 1.84925 0 0
                    CHANNELS 6 Xposition Yposition Zposition Zrotation Xrotation Yrotation
                    JOINT Bip01_R_Toe2Nub
                    {
                      OFFSET 1.70976 0 0
                      CHANNELS 6 Xposition Yposition Zposition Zrotation Xrotation Yrotation
                      End Site
                      {
                        OFFSET 0 0 0
                      }
                    }
                  }
                }
              }
              JOINT Bip01_R_Toe1
              {
                OFFSET 1.3748 1.34027 -0.0712419
                CHANNELS 6 Xposition Yposition Zposition Zrotation Xrotation Yrotation
                JOINT Bip01_R_Toe11
                {
                  OFFSET 2.26122 0 0
                  CHANNELS 6 Xposition Yposition Zposition Zrotation Xrotation Yrotation
                  JOINT Bip01_R_Toe12
                  {
                    OFFSET 2.22215 0 0
                    CHANNELS 6 Xposition Yposition Zposition Zrotation Xrotation Yrotation
                    JOINT Bip01_R_Toe1Nub
                    {
                      OFFSET 1.61867 0 0
                      CHANNELS 6 Xposition Yposition Zposition Zrotation Xrotation Yrotation
                      End Site
                      {
                        OFFSET 0 0 0
                      }
                    }
                  }
                }
              }
              JOINT Bip01_R_Toe0
              {
                OFFSET 1.40695 0.687986 0.883783
                CHANNELS 6 Xposition Yposition Zposition Zrotation Xrotation Yrotation
                JOINT Bip01_R_Toe01
                {
                  OFFSET 2.26828 0 0
                  CHANNELS 6 Xposition Yposition Zposition Zrotation Xrotation Yrotation
                  JOINT Bip01_R_Toe02
                  {
                    OFFSET 2.09769 0 0
                    CHANNELS 6 Xposition Yposition Zposition Zrotation Xrotation Yrotation
                    JOINT Bip01_R_Toe0Nub
                    {
                      OFFSET 1.53753 0 0
                      CHANNELS 6 Xposition Yposition Zposition Zrotation Xrotation Yrotation
                      End Site
                      {
                        OFFSET 0 0 0
                      }
                    }
                  }
                }
              }
            }
          }
        }
      }
      JOINT Bip01_L_Thigh
      {
        OFFSET -4.03411 -0.254147 3.45377
        CHANNELS 6 Xposition Yposition Zposition Zrotation Xrotation Yrotation
        JOINT Bip01_L_Calf
        {
          OFFSET 3.92616 0 0
          CHANNELS 6 Xposition Yposition Zposition Zrotation Xrotation Yrotation
          JOINT Bip01_L_HorseLink
          {
            OFFSET 6.1232 0 0
            CHANNELS 6 Xposition Yposition Zposition Zrotation Xrotation Yrotation
            JOINT Bip01_L_Foot
            {
              OFFSET 9.94775 0 0
              CHANNELS 6 Xposition Yposition Zposition Zrotation Xrotation Yrotation
              JOINT Bip01_L_Toe3
              {
                OFFSET 0.881246 -0.110986 -0.0157582
                CHANNELS 6 Xposition Yposition Zposition Zrotation Xrotation Yrotation
                JOINT Bip01_L_Toe31
                {
                  OFFSET 2.32136 0 0
                  CHANNELS 6 Xposition Yposition Zposition Zrotation Xrotation Yrotation
                  JOINT Bip01_L_Toe32
                  {
                    OFFSET 1.63293 0 0
                    CHANNELS 6 Xposition Yposition Zposition Zrotation Xrotation Yrotation
                    JOINT Bip01_L_Toe3Nub
                    {
                      OFFSET 1.7213 0 0
                      CHANNELS 6 Xposition Yposition Zposition Zrotation Xrotation Yrotation
                      End Site
                      {
                        OFFSET 0 0 0
                      }
                    }
                  }
                }
              }
              JOINT Bip01_L_Toe2
              {
                OFFSET 0.994649 0.967162 1.09447
                CHANNELS 6 Xposition Yposition Zposition Zrotation Xrotation Yrotation
                JOINT Bip01_L_Toe21
                {
                  OFFSET 2.202 0 0
                  CHANNELS 6 Xposition Yposition Zposition Zrotation Xrotation Yrotation
                  JOINT Bip01_L_Toe22
                  {
                    OFFSET 1.84926 0 0
                    CHANNELS 6 Xposition Yposition Zposition Zrotation Xrotation Yrotation
                    JOINT Bip01_L_Toe2Nub
                    {
                      OFFSET 1.70976 0 0
                      CHANNELS 6 Xposition Yposition Zposition Zrotation Xrotation Yrotation
                      End Site
                      {
                        OFFSET 0 0 0
                      }
                    }
                  }
                }
              }
              JOINT Bip01_L_Toe1
              {
                OFFSET 1.37483 1.34021 0.0715086
                CHANNELS 6 Xposition Yposition Zposition Zrotation Xrotation Yrotation
                JOINT Bip01_L_Toe11
                {
                  OFFSET 2.26124 0 0
                  CHANNELS 6 Xposition Yposition Zposition Zrotation Xrotation Yrotation
                  JOINT Bip01_L_Toe12
                  {
                    OFFSET 2.22214 0 0
                    CHANNELS 6 Xposition Yposition Zposition Zrotation Xrotation Yrotation
                    JOINT Bip01_L_Toe1Nub
                    {
                      OFFSET 1.61867 0 0
                      CHANNELS 6 Xposition Yposition Zposition Zrotation Xrotation Yrotation
                      End Site
                      {
                        OFFSET 0 0 0
                      }
                    }
                  }
                }
              }
              JOINT Bip01_L_Toe0
              {
                OFFSET 1.40707 0.688009 -0.883564
                CHANNELS 6 Xposition Yposition Zposition Zrotation Xrotation Yrotation
                JOINT Bip01_L_Toe01
                {
                  OFFSET 2.26828 0 0
                  CHANNELS 6 Xposition Yposition Zposition Zrotation Xrotation Yrotation
                  JOINT Bip01_L_Toe02
                  {
                    OFFSET 2.0977 0 0
                    CHANNELS 6 Xposition Yposition Zposition Zrotation Xrotation Yrotation
                    JOINT Bip01_L_Toe0Nub
                    {
                      OFFSET 1.53752 0 0
                      CHANNELS 6 Xposition Yposition Zposition Zrotation Xrotation Yrotation
                      End Site
                      {
                        OFFSET 0 0 0
                      }
                    }
                  }
                }
              }
            }
          }
        }
      }
      JOINT Bip01_Spine1
      {
        OFFSET 4.90674 -0.00437896 0
        CHANNELS 6 Xposition Yposition Zposition Zrotation Xrotation Yrotation
        JOINT Bip01_Neck
        {
          OFFSET 5.56447 -1.28357 0
          CHANNELS 6 Xposition Yposition Zposition Zrotation Xrotation Yrotation
          JOINT Bip01_Neck1
          {
            OFFSET 2.79308 -0.00219964 0
            CHANNELS 6 Xposition Yposition Zposition Zrotation Xrotation Yrotation
            JOINT Bip01_Head
            {
              OFFSET 2.79272 0 0
              CHANNELS 6 Xposition Yposition Zposition Zrotation Xrotation Yrotation
              JOINT BN_Mouth_01
              {
                OFFSET 4.19089 0.0665938 0
                CHANNELS 6 Xposition Yposition Zposition Zrotation Xrotation Yrotation
                End Site
                {
                  OFFSET 0 0 0
                }
              }
              JOINT Bip01_HeadNub
              {
                OFFSET 6.95118 0 0
                CHANNELS 6 Xposition Yposition Zposition Zrotation Xrotation Yrotation
                End Site
                {
                  OFFSET 0 0 0
                }
              }
            }
          }
        }
      }
    }
  }
}
MOTION
Frames:	3
Frame Time:	0.0333333
0.831327 84.9272 -0.486486 -104.95 -90 -4.90042 0 0 0 -89.9988 6.18131 -89.9989 -5.52396 -0.33226 5.55112e-017 6.08429 -0.0176531 179.309 6.48885 2.28882e-005 0.000982981 -6.48994 0.0751355 -0.671003 7.08759 7.6294e-006 0.00107189 -5.1178 0.0298744 -0.697605 4.02178 0.398903 5.55112e-017 -2.95543 1.66001e-011 9.68086e-013 4.84414 -3.22853 -3.65581 -65.282 -6.42831 20.6779 8.51613 1.06582e-014 -1.42109e-014 11.7729 -8.81948 -18.0966 10.1924 5.72205e-006 -1.90735e-006 -21.25 7.16361 -1.34617 14.5949 -1.43856 0.585083 -47.1238 -0.605531 64.1502 14.4623 -3.8147e-006 -5.32907e-014 -7.46669 0.445603 59.6224 4.84413 -3.22853 3.65557 115.141 -6.13959 -151.531 8.51612 -3.8147e-006 -7.62939e-006 -11.3869 8.46068 -27.6758 10.1924 1.90735e-006 7.10542e-015 21.2825 -7.44942 -1.96842 14.4623 2.32703e-013 -5.72205e-006 12.9307 -2.48872 60.6991 14.5949 1.43854 0.585066 57.7877 -1.77067 67.0424 -3.99586 -0.605463 -3.45377 -73.5226 2.57607 -178.438 3.92615 3.55272e-015 3.57628e-007 -86.7096 -1.01944e-006 -1.7273e-005 6.1232 -4.26327e-014 -1.19209e-007 56.3362 2.69513e-005 5.68495e-006 9.94773 -3.48168e-012 -0.00062275 -45.3175 3.77063 15.2865 0.881235 -0.110978 0.0157604 148.617 -4.57455 179.449 2.32137 4.50488e-012 -0.000543594 -15.0742 0.00894987 0.00241119 1.63293 4.54752e-013 0.000551224 -38.0113 -0.00922004 -0.00300751 1.72129 -1.5259e-005 3.55271e-015 -1.80354e-006 1.04721e-005 -4.06746e-008 0.994646 0.967224 -1.09442 94.1376 -7.99944 20.3349 2.202 -1.4211e-012 0.000597 -22.5016 -0.0288922 -0.00454135 1.84925 3.81475e-006 -0.000793457 9.38981 0.0136877 -0.00226282 1.70977 -7.10554e-015 -1.90735e-006 3.28772e-007 1.03768e-005 -6.08489e-007 1.37481 1.34023 -0.071435 86.6945 0.161448 -2.67073 2.26124 -1.4744e-012 0.000703812 -31.826 -0.0369005 -0.0229026 2.22213 -7.62951e-006 -0.00142956 10.7063 0.00733209 -0.0226464 1.61866 0 -1.77636e-015 -6.71216e-007 1.00631e-005 5.56143e-007 1.40704 0.687971 0.883607 96.0998 0.160866 -28.4104 2.26828 7.15265e-007 1.14441e-005 -31.0993 0.0206928 -0.0342816 2.09769 -1.90738e-006 7.62939e-006 -7.95539 -0.0029155 0.0207304 1.53753 3.81476e-006 -7.10542e-014 -4.05269e-007 5.85076e-007 1.87078e-007 -3.99587 -0.605465 3.45377 -43.5418 2.14872 176.366 3.92616 -1.90735e-006 9.53674e-007 -31.9352 -5.56622e-006 8.30588e-006 6.1232 2.84218e-014 -1.33227e-015 27.2183 1.04447e-006 -1.98808e-005 9.94777 7.62942e-006 -4.88498e-015 -46.9744 -1.21833 -9.82874 0.881239 -0.110993 -0.0156994 108.167 3.18287 -176.627 2.32137 7.6295e-006 0.00104141 -41.2679 -0.0324755 -0.0285013 1.63293 7.62944e-006 -0.000999451 -54.0983 0.0014821 0.0178698 1.72129 0 -9.53674e-007 -179.962 -0.00551665 -0.00891648 0.9946 0.967084 1.0946 47.4587 20.5959 -18.6098 2.20201 1.90736e-006 -5.68434e-014 -38.2334 -0.0112362 -0.0088527 1.84926 -1.4211e-014 -1.90735e-006 -39.0672 -7.61928e-006 5.95724e-006 1.70977 0 5.68434e-014 179.961 0.00411781 -0.00369797 1.37486 1.34018 0.0716915 47.8511 -1.80791 1.99626 2.26123 -9.53682e-007 -3.55271e-015 -55.7142 -0.0103842 -0.0126475 2.22213 -1.90743e-006 -0.000555992 -29.0786 0.00514488 0.00286012 1.61867 2.84221e-014 0 -179.961 0.00881336 -0.00191829 1.40715 0.688038 -0.883416 61.0593 -16.7586 27.5414 2.26828 -2.38421e-006 -4.26325e-014 -58.5013 -4.83197e-007 2.21936e-006 2.09769 3.81475e-006 -2.84217e-014 -51.1643 -3.78965e-006 1.31096e-005 1.53753 3.81478e-006 3.05533e-013 179.962 -0.00897383 0.00391724 4.90619 -0.00435639 -1.16414e-010 -6.0459 9.96226e-006 1.0552e-006 5.5643 -1.28358 1.17021e-010 -3.48521 -0.124571 1.90589 2.79235 -0.0022049 1.85874e-012 -1.67361 -0.18773 1.91515 2.79272 2.28882e-005 -2.98024e-008 23.0116 -0.436163 -2.56316 4.19088 0.0666047 1.19251e-007 -175.061 -0.0377503 -179.998 6.95116 7.6294e-006 1.19209e-007 -3.26231e-006 -1.58034e-014 5.33504e-008 
0.850013 84.5079 -0.515476 -104.95 -90 -4.90042 0 0 0 -89.9988 6.18131 -89.9989 -5.52396 -0.33226 1.11022e-016 3.09585 0.0128314 179.206 6.48885 2.28882e-005 0.000982981 -8.85659 0.117392 -0.761082 7.08759 7.6294e-006 0.00107189 -11.0935 0.11958 -0.778615 4.02178 0.398903 2.22045e-016 -3.43545 1.79438e-011 1.03968e-012 4.84414 -3.22853 -3.65581 -64.248 -6.7772 26.0094 8.51613 1.42109e-014 -1.42109e-014 11.7538 -11.4776 -13.3548 10.1924 5.72205e-006 -1.90735e-006 -22.9606 5.59136 -17.618 14.5949 -1.43856 0.585083 -45.1582 0.760907 51.4032 14.4623 -3.8147e-006 -5.68434e-014 -7.38809 1.6882 47.7782 4.84413 -3.22853 3.65557 116.881 -7.88639 -148.044 8.51612 -3.8147e-006 -7.62939e-006 -12.2285 6.80651 -24.2556 10.1924 1.90735e-006 7.10542e-015 20.2399 -4.95759 -17.7607 14.4623 2.27374e-013 -5.72205e-006 7.53748 -1.45973 51.4588 14.5949 1.43854 0.585066 53.6095 -3.08748 63.1076 -3.9907 -0.639132 -3.45377 -73.8086 2.51767 -178.056 3.92615 -3.55272e-015 3.57628e-007 -83.8821 -1.84901e-006 -1.71965e-005 6.1232 0 -1.19209e-007 49.3779 2.60432e-005 8.92385e-006 9.94774 -3.41062e-012 -0.00062275 -40.0551 4.59728 15.0402 0.881235 -0.110978 0.0157604 142.367 -4.48813 178.974 2.32137 5.9544e-012 -0.000543594 -10.3763 0.00901835 0.00221126 1.63293 -1.8119e-012 0.000551224 -35.5438 -0.00729687 -0.00546901 1.7213 -1.5259e-005 3.19744e-014 -1.80354e-006 1.04721e-005 -4.06746e-008 0.994647 0.967223 -1.09442 81.5393 -12.6256 18.6901 2.202 -1.20758e-011 0.000597 -19.8395 -0.0265146 -0.0102821 1.84925 3.81476e-006 -0.000793457 2.8395 0.0138762 -0.00027714 1.70977 -2.13166e-014 -1.90735e-006 3.28772e-007 1.03768e-005 -6.08489e-007 1.37482 1.34023 -0.071435 75.129 0.687064 -2.58593 2.26124 -1.17952e-012 0.000703812 -27.4856 -0.038528 -0.0200442 2.22214 -7.62949e-006 -0.00142956 4.10561 0.0113655 -0.0010521 1.61866 7.10553e-015 -1.77636e-015 -6.71216e-007 1.00631e-005 5.56143e-007 1.40704 0.68797 0.883607 85.8401 6.07858 -27.7993 2.26828 7.15265e-007 1.14441e-005 -24.4002 0.000231664 -0.000484548 2.09769 -1.90738e-006 7.62939e-006 -16.4027 -8.50927e-005 0.000223208 1.53753 3.81476e-006 -2.84217e-014 -4.05269e-007 5.85076e-007 1.87078e-007 -3.99078 -0.637185 3.45377 -44.887 0.323323 175.699 3.92616 -1.90735e-006 9.53674e-007 -33.8418 -5.88584e-006 8.09107e-006 6.1232 -1.42109e-014 -2.22045e-015 27.9704 8.27265e-007 -1.9897e-005 9.94777 7.62942e-006 -9.32587e-015 -48.7418 -2.80189 -10.9353 0.881239 -0.110993 -0.0156994 113.24 3.4665 -176.919 2.32137 7.6295e-006 0.00104141 -34.2614 -0.0357104 -0.0243259 1.63293 7.62944e-006 -0.000999451 -53.6116 0.00159205 0.0178882 1.7213 0 -9.53674e-007 -179.962 -0.00551665 -0.00891648 0.9946 0.967084 1.0946 46.8464 20.7876 -18.3935 2.202 1.90736e-006 -8.17124e-014 -28.9646 -0.0125197 -0.00691889 1.84926 -1.4211e-014 -1.90735e-006 -47.2528 -1.66252e-006 -1.55054e-006 1.70977 0 4.9738e-014 179.961 0.00411781 -0.00369797 1.37486 1.34018 0.0716915 47.881 -1.80711 1.99699 2.26123 -9.53682e-007 -3.55271e-015 -45.418 -0.0132693 -0.00980704 2.22214 -1.90742e-006 -0.000555992 -37.837 0.00464348 0.0036178 1.61867 2.13166e-014 1.77636e-015 -179.961 0.00881336 -0.00191829 1.40715 0.688038 -0.883416 60.7966 -16.8925 27.4636 2.26828 -2.38421e-006 -4.26325e-014 -49.1298 -0.00197875 0.00171438 2.09769 3.81475e-006 -2.84217e-014 -58.8167 -5.16029e-006 1.2974e-005 1.53753 3.81478e-006 2.77111e-013 179.962 -0.00897383 0.00391724 4.90619 -0.00435639 -1.16414e-010 -6.05136 9.96216e-006 1.05615e-006 5.5643 -1.28358 1.17054e-010 -2.81341 -0.0914051 1.68763 2.79235 -0.0022049 1.62381e-012 -3.18957 -0.226577 1.69876 2.79272 2.28882e-005 -2.98024e-008 23.0577 -0.306495 -1.95821 4.19088 0.0666047 1.19265e-007 -176.531 -0.0558167 -179.998 6.95116 7.6294e-006 1.19209e-007 -3.26231e-006 1.18277e-014 5.33504e-008 
0.856612 84.2376 -0.533806 -104.95 -90 -4.90042 0 0 0 -89.9988 6.18131 -89.9989 -5.52396 -0.33226 0 -0.116614 0.0574276 179.142 6.48885 2.28882e-005 0.000982981 -10.406 0.14861 -0.815779 7.08759 7.6294e-006 0.00107189 -16.265 0.201693 -0.807207 4.02178 0.398903 -1.11022e-016 -3.8616 1.918e-011 1.10318e-012 4.84414 -3.22853 -3.65581 -62.6742 -7.31837 32.9422 8.51613 -1.77636e-014 -1.42109e-014 11.9781 -13.7912 -8.53934 10.1924 5.72205e-006 -1.90735e-006 -25.9001 3.74038 -30.734 14.5949 -1.43856 0.585083 -42.6948 2.64428 35.8284 14.4623 -3.81471e-006 -7.10543e-014 -6.67907 3.38831 33.2106 4.84413 -3.22853 3.65557 119.194 -9.28621 -143.34 8.51612 -3.8147e-006 -7.62939e-006 -13.24 4.2562 -19.9061 10.1924 1.90735e-006 7.10542e-015 20.782 -2.43303 -30.1882 14.4623 0 -5.72204e-006 3.32301 0.154528 35.1787 14.5949 1.43854 0.585066 49.7246 -5.31594 53.1343 -3.9858 -0.668297 -3.45377 -74.7624 2.48804 -177.679 3.92615 0 3.57628e-007 -81.1912 -2.63326e-006 -1.70885e-005 6.1232 -4.26327e-014 -1.19209e-007 42.5787 2.47838e-005 1.19592e-005 9.94774 -3.21167e-012 -0.00062275 -35.1306 5.49591 14.7716 0.881236 -0.110978 0.0157604 136.238 -4.34378 178.511 2.32137 7.47498e-012 -0.000543594 -5.77624 0.00335269 0.0589557 1.63293 -4.54752e-012 0.000551224 -33.1263 0.00409499 -0.0229572 1.7213 -1.5259e-005 7.28306e-014 -1.80354e-006 1.04721e-005 -4.06746e-008 0.994648 0.967223 -1.09442 68.8128 -16.7106 16.0673 2.202 -2.22971e-011 0.000597 -17.243 -0.00609099 -0.0762852 1.84926 3.81476e-006 -0.000793457 -3.56766 0.0112356 0.0427263 1.70977 -1.4211e-014 -1.90735e-006 3.28772e-007 1.03768e-005 -6.08489e-007 1.37482 1.34023 -0.071435 63.7771 1.1848 -2.39913 2.26125 -2.69299e-012 0.000703812 -23.233 -0.0399083 -0.017132 2.22214 -7.62948e-006 -0.00142956 -2.34674 0.0124042 -0.0239812 1.61867 2.84221e-014 -3.55271e-015 -6.71216e-007 1.00631e-005 5.56143e-007 1.40705 0.68797 0.883607 75.5473 11.6989 -26.1488 2.26828 7.15264e-007 1.14441e-005 -17.7418 0.0179736 -0.0561415 2.0977 -1.90737e-006 7.62939e-006 -24.7202 -0.0097047 0.0210349 1.53754 3.81476e-006 2.13163e-014 -4.05269e-007 5.85076e-007 1.87078e-007 -3.9858 -0.6683 3.45377 -46.4619 -1.25975 174.995 3.92616 -1.90735e-006 9.53674e-007 -36.0126 -6.23552e-006 7.83556e-006 6.1232 0 -1.77636e-015 29.3751 3.84587e-007 -1.9913e-005 9.94777 7.62942e-006 -1.55431e-014 -49.7712 -4.42888 -11.7682 0.881239 -0.110993 -0.0156994 118.218 3.71885 -177.228 2.32137 7.62949e-006 0.00104141 -27.391 -0.038364 -0.0198797 1.63293 7.62944e-006 -0.000999451 -53.1344 0.00169932 0.0179067 1.7213 0 -9.53674e-007 -179.962 -0.00551665 -0.00891648 0.9946 0.967084 1.0946 46.2444 20.9734 -18.1789 2.202 1.90736e-006 -6.75015e-014 -19.8759 -0.0134522 -0.00486355 1.84926 0 -1.90735e-006 -55.2795 -9.00762e-006 3.80371e-006 1.70977 0 4.9738e-014 179.961 0.00411781 -0.00369797 1.37486 1.34018 0.0716915 47.9104 -1.80635 1.99767 2.26123 -9.53682e-007 -7.10543e-015 -35.3218 -0.015225 -0.00670522 2.22214 -1.90741e-006 -0.000555992 -46.4253 0.00405877 0.00426369 1.61867 1.42111e-014 3.55271e-015 -179.961 0.00881336 -0.00191829 1.40715 0.688038 -0.883416 60.5386 -17.0235 27.3867 2.26828 -2.38421e-006 -5.68434e-014 -39.9404 -0.00402821 0.00481302 2.0977 3.81475e-006 -2.13163e-014 -66.3204 -6.52943e-006 1.27236e-005 1.53753 3.81478e-006 2.91322e-013 179.962 -0.00897383 0.00391724 4.90619 -0.00435639 -1.16414e-010 -5.89532 9.965e-006 1.02901e-006 5.5643 -1.28358 1.17074e-010 -2.04499 -0.0593512 1.42551 2.79235 -0.0022049 1.32117e-012 -4.51262 -0.245529 1.43725 2.79272 2.28882e-005 -2.98024e-008 22.826 -0.154635 -1.31385 4.19088 0.0666047 1.19271e-007 -177.074 -0.0437165 -179.999 6.95116 7.6294e-006 1.19209e-007 -3.26231e-006 3.53837e-014 5.33504e-008 
